# xmcd
#
# Track frame offsets:
#	150
#	13243
#	28353
#	40368
#	55742
#	67353
#	78750
#	90538
#	103011
#	111696
#	125593
#	139298
#	150572
#	162020
#	178124
#	190502
#	204107
#	216846
#	233002
#	244455
#
# Disc length: 3388 seconds
#
# Revision: 0
# Processed by: cddbd v1.5.1PL0 Copyright (c) Steve Scherf et al.
# Submitted via: EasyCDDAExtractor 4.5.0.2
#
DISCID=1f0d3a14
DTITLE=Various Artist - Golden Legends Of Country
DYEAR=2004
DGENRE=Country
TTITLE0=Hey Good Lookin'
TTITLE1=Conditions
TTITLE2=Take Me Back To Tulsa
TTITLE3=Home On The Range
TTITLE4=A Heart Full Of Love
TTITLE5=I Wish I Didn't Love You So Much
TTITLE6=Back In The Saddle Again
TTITLE7=One Has My Name, The Other Has My Heart
TTITLE8=Night Train To Memphis
TTITLE9=I Will Survive
TTITLE10=Ruby Tuesday
TTITLE11=It Wasn't God How Made Honky Tonk Angles
TTITLE12=Orange Blossom Special
TTITLE13=No Money Down
TTITLE14=Cry Of The Wild Goose
TTITLE15=You Are My Sunshine
TTITLE16=Smokey Mountian Rag
TTITLE17=The Devil Went Down To Georgia
TTITLE18=King Without A Queen
TTITLE19=It's All Over
EXTD=
EXTT0=
EXTT1=
EXTT2=
EXTT3=
EXTT4=
EXTT5=
EXTT6=
EXTT7=
EXTT8=
EXTT9=
EXTT10=
EXTT11=
EXTT12=
EXTT13=
EXTT14=
EXTT15=
EXTT16=
EXTT17=
EXTT18=
EXTT19=
PLAYORDER=
